# xmcd
# 
# Track frame offsets:
#     150
#     19917
#     34072
#     53657
#     70095
#     102057
#     118162
#     135370
#     151005
#     164527
#     180205
# 
# Disc length: 2698
# 
# Revision: 12
# Processed by: cddbd v1.5.2PL0 Copyright (c) Steve Scherf et al.
# Submitted via: fre:ac v1.0.17
# 
DISCID=7f0a880b
DTITLE=Clapton, Eric (UK-rock-82) - Time Pieces - The Best Of Eric Clapton
DYEAR=1982
DGENRE=Rock
TTITLE0=I Shot The Sheriff - 1974
TTITLE1=After Midnight - 1970
TTITLE2=Knockin' On Heaven's Door - 1975
TTITLE3=Wonderful Tonight - 1977
TTITLE4=Layla -1970
TTITLE5=Cocaine - 1977
TTITLE6=Lay Down Sally - 1977
TTITLE7=Willie And The Hand Jive - 1974
TTITLE8=Promises - 1978
TTITLE9=Swing Low Sweet Chariot -1975
TTITLE10=Let It Grow - 1974
EXTD=0\n\n\n YEAR: 1982
EXTT0=
EXTT1=
EXTT2=
EXTT3=
EXTT4=
EXTT5=
EXTT6=
EXTT7=
EXTT8=
EXTT9=
EXTT10=
PLAYORDER=
